<svg xmlns="http://www.w3.org/2000/svg" height="800" width="1200" viewBox="-44.7 -40.87575 387.4 245.2545"><defs><clipPath clipPathUnits="userSpaceOnUse" id="a"><path d="M0 841.89h595.276V0H0z"/></clipPath></defs><g clip-path="url(#a)" transform="matrix(1.00738 0 0 -1.00738 -158.977 503.81)" fill="#001489"><path d="M445.779 340.059h1.18v2.66l1.355-.017c.354 0 .946-.456.995-1.064.033-.428-.034-1.558.177-1.558h1.21c-.208.073-.312 1.109-.386 1.865-.091.995-.8 1.263-.968 1.337.226.018 1.257.532 1.257 1.477 0 1.012-.86 1.896-1.972 1.896v-.007h-2.848zm1.18 5.583h1.392c.579 0 1.04-.554 1.04-.98 0-.42-.365-.988-1.04-.988v-.002l-1.391.007z"/><path d="M442.648 343.339a5.492 5.492 0 0110.982 0 5.492 5.492 0 01-10.982 0m10.433 0a4.94 4.94 0 00-4.944-4.941 4.941 4.941 0 000 9.882 4.938 4.938 0 004.944-4.941M316.6 364.161c1.125 1.321 1.781 3.103 1.781 4.961v6.845h-35.013v-7.617h19.333l-16.94-18.738c-1.116-1.328-1.874-2.947-1.874-4.836v-6.963h34.987v7.61H299.67zm87.934 11.806c-4.23 0-7.704-3.416-7.704-7.638v-22.874c0-4.213 3.475-7.641 7.704-7.641h27.249c4.219 0 7.593 3.428 7.593 7.64v22.875c0 4.222-3.374 7.638-7.593 7.638zm16.47-7.616a3.804 3.804 0 003.807-3.822v-15.28c0-2.105-1.701-3.826-3.811-3.826h-5.756a3.837 3.837 0 00-3.831 3.826v15.28a3.828 3.828 0 003.83 3.822zm-156.735 7.616h14.588v-30.521c0-4.214-3.378-7.632-7.596-7.632h-6.992zm66.838-38.154c-4.216 0-7.677 3.43-7.677 7.642v30.511h14.58v-26.702c0-2.114 1.755-3.842 3.856-3.842h4.682c2.116 0 3.77 1.721 3.77 3.827v26.717h33.893c4.213 0 7.608-3.413 7.608-7.632v-30.52h-14.583v26.731a3.809 3.809 0 01-3.826 3.805h-8.505v-22.895c0-4.213-3.366-7.642-7.591-7.642zm-88.282 51.277c-5.47 0-10.354-2.49-13.588-6.398l-37.212-44.878h21.115l28.229 34.022a11.516 11.516 0 008.855 4.13h7.447l-31.506-38.152h22.646c5.282 0 9.522 4.279 9.522 9.555v41.72z"/><path d="M195.018 382.691l-37.204-44.878h21.1l28.227 34.023a11.54 11.54 0 008.847 4.13h7.682v13.123h-15.073a17.562 17.562 0 01-13.579-6.398"/><path d="M322.53 389.09c-3.504 11.245-8.675 36.434 13.568 52.048 15.894 11.15 64.13 24.327 89.973 33.797l18.577 25.184c-17.721-9.095-40.713-18.411-61.683-24.837-46.743-14.323-74.701-22.82-110.715-23.526-25.923-.51-26.28 11.723-1.055 33.66-28.321-10.991-67.925-24.016-113.382-34.19 40.55-1.14 71.339-9.384 89.84-20.13 26.35-15.305 32.738-31.378 35.713-42.006zm-48.812 46.55c12.64-.451 22.343.542 39.98 4.396-8.32-6.203-15.661-17.5-16.488-26.135-4.382 6.558-14.53 16.746-23.492 21.739" fill-rule="evenodd"/></g></svg>